<?xml version="1.0" encoding="iso-8859-1"?>
<!-- Generator: Adobe Illustrator 19.0.0, SVG Export Plug-In . SVG Version: 6.00 Build 0)  -->
<svg fill="white" version="1.1" id="Layer_1" xmlns="http://www.w3.org/2000/svg" xmlns:xlink="http://www.w3.org/1999/xlink" x="0px" y="0px"
	 viewBox="0 0 512.456 512.456" style="enable-background:new 0 0 512.456 512.456;" xml:space="preserve">
<g>
	<g>
		<path d="M511.332,429.828c0.172-0.548-0.228-1.132-0.32-1.744L483.78,247.44l0.676-0.02v-99.128
			c0-11.012-10.78-20.064-21.8-20.064h-98.2v-48h62.156c2.212,0,5.844-1.892,5.844-4.1V4.052c0-2.208-3.632-3.824-5.844-3.824
			H258.904c-2.204,0-2.448,1.616-2.448,3.824v72.076c0,2.208,0.244,4.1,2.448,4.1h61.552v48h-132V84.416
			c0-6.616-6.412-12.188-13.036-12.188H87.28c-6.616,0-10.824,5.572-10.824,12.188v43.812H47.272
			c-11.008,0-18.816,9.052-18.816,20.064v99.456l-28.44,180.34c-0.092,0.608,0.232,1.196,0.396,1.744
			c-0.064,0.644,0.044,1.268,0.044,1.924v59.864c0,11.02,7.896,20.608,18.908,20.608H490.62c11.02,0,21.836-9.588,21.836-20.608
			v-59.864C512.456,431.1,511.392,430.476,511.332,429.828z M272.456,60.228v-40H375.26h27.804h9.392v40H272.456z M212.456,284.22
			c0-2.204,1.788-3.992,3.996-3.992h20.008c2.208,0,3.996,1.788,3.996,3.992v20.016c0,2.204-1.788,3.992-3.996,3.992h-20.008
			c-2.208,0-3.996-1.788-3.996-3.992V284.22z M212.456,324.22c0-2.204,1.788-3.992,3.996-3.992h20.008
			c2.208,0,3.996,1.788,3.996,3.992v20.016c0,2.204-1.788,3.992-3.996,3.992h-20.008c-2.208,0-3.996-1.788-3.996-3.992V324.22z
			 M212.456,364.22c0-2.204,1.788-3.992,3.996-3.992h20.008c2.208,0,3.996,1.788,3.996,3.992v20.016
			c0,2.204-1.788,3.992-3.996,3.992h-20.008c-2.208,0-3.996-1.788-3.996-3.992V364.22z M96.456,384.236
			c0,2.204-1.788,3.992-3.996,3.992H72.452c-2.208,0-3.996-1.788-3.996-3.992V364.22c0-2.204,1.788-3.992,3.996-3.992H92.46
			c2.208,0,3.996,1.788,3.996,3.992V384.236z M96.456,344.236c0,2.204-1.788,3.992-3.996,3.992H72.452
			c-2.208,0-3.996-1.788-3.996-3.992V324.22c0-2.204,1.788-3.992,3.996-3.992H92.46c2.208,0,3.996,1.788,3.996,3.992V344.236z
			 M96.456,304.236c0,2.204-1.788,3.992-3.996,3.992H72.452c-2.208,0-3.996-1.788-3.996-3.992V284.22
			c0-2.204,1.788-3.992,3.996-3.992H92.46c2.208,0,3.996,1.788,3.996,3.992V304.236z M100.456,96.228h64v84h-64V96.228z
			 M136.456,384.236c0,2.204-1.788,3.992-3.996,3.992h-20.008c-2.208,0-3.996-1.788-3.996-3.992V364.22
			c0-2.204,1.788-3.992,3.996-3.992h20.008c2.208,0,3.996,1.788,3.996,3.992V384.236z M136.456,344.236
			c0,2.204-1.788,3.992-3.996,3.992h-20.008c-2.208,0-3.996-1.788-3.996-3.992V324.22c0-2.204,1.788-3.992,3.996-3.992h20.008
			c2.208,0,3.996,1.788,3.996,3.992V344.236z M136.456,304.236c0,2.204-1.788,3.992-3.996,3.992h-20.008
			c-2.208,0-3.996-1.788-3.996-3.992V284.22c0-2.204,1.788-3.992,3.996-3.992h20.008c2.208,0,3.996,1.788,3.996,3.992V304.236z
			 M176.456,384.236c0,2.204-1.788,3.992-3.996,3.992h-20.008c-2.208,0-3.996-1.788-3.996-3.992V364.22
			c0-2.204,1.788-3.992,3.996-3.992h20.008c2.208,0,3.996,1.788,3.996,3.992V384.236z M176.456,344.236
			c0,2.204-1.788,3.992-3.996,3.992h-20.008c-2.208,0-3.996-1.788-3.996-3.992V324.22c0-2.204,1.788-3.992,3.996-3.992h20.008
			c2.208,0,3.996,1.788,3.996,3.992V344.236z M176.456,304.236c0,2.204-1.788,3.992-3.996,3.992h-20.008
			c-2.208,0-3.996-1.788-3.996-3.992V284.22c0-2.204,1.788-3.992,3.996-3.992h20.008c2.208,0,3.996,1.788,3.996,3.992V304.236z
			 M328.456,464.252c0,11.032-8.944,19.976-19.976,19.976H204.432c-11.032,0-19.976-8.944-19.976-19.976v-4.048
			c0-11.032,8.944-19.976,19.976-19.976H308.48c11.032,0,19.976,8.944,19.976,19.976V464.252z M256.452,320.228h20.008
			c2.208,0,3.996,1.788,3.996,3.992v20.016c0,2.204-1.788,3.992-3.996,3.992h-20.008c-2.208,0-3.996-1.788-3.996-3.992V324.22
			C252.456,322.016,254.244,320.228,256.452,320.228z M252.456,304.236V284.22c0-2.204,1.788-3.992,3.996-3.992h20.008
			c2.208,0,3.996,1.788,3.996,3.992v20.016c0,2.204-1.788,3.992-3.996,3.992h-20.008
			C254.244,308.228,252.456,306.44,252.456,304.236z M256.452,360.228h20.008c2.208,0,3.996,1.788,3.996,3.992v20.016
			c0,2.204-1.788,3.992-3.996,3.992h-20.008c-2.208,0-3.996-1.788-3.996-3.992V364.22
			C252.456,362.016,254.244,360.228,256.452,360.228z M296.452,320.228h20.008c2.208,0,3.996,1.788,3.996,3.992v20.016
			c0,2.204-1.788,3.992-3.996,3.992h-20.008c-2.208,0-3.996-1.788-3.996-3.992V324.22
			C292.456,322.016,294.244,320.228,296.452,320.228z M292.456,304.236V284.22c0-2.204,1.788-3.992,3.996-3.992h20.008
			c2.208,0,3.996,1.788,3.996,3.992v20.016c0,2.204-1.788,3.992-3.996,3.992h-20.008
			C294.244,308.228,292.456,306.44,292.456,304.236z M296.452,360.228h20.008c2.208,0,3.996,1.788,3.996,3.992v20.016
			c0,2.204-1.788,3.992-3.996,3.992h-20.008c-2.208,0-3.996-1.788-3.996-3.992V364.22
			C292.456,362.016,294.244,360.228,296.452,360.228z M360.456,384.236c0,2.204-1.788,3.992-3.996,3.992h-20.008
			c-2.208,0-3.996-1.788-3.996-3.992V364.22c0-2.204,1.788-3.992,3.996-3.992h20.008c2.208,0,3.996,1.788,3.996,3.992V384.236z
			 M360.456,344.236c0,2.204-1.788,3.992-3.996,3.992h-20.008c-2.208,0-3.996-1.788-3.996-3.992V324.22
			c0-2.204,1.788-3.992,3.996-3.992h20.008c2.208,0,3.996,1.788,3.996,3.992V344.236z M360.456,304.236
			c0,2.204-1.788,3.992-3.996,3.992h-20.008c-2.208,0-3.996-1.788-3.996-3.992V284.22c0-2.204,1.788-3.992,3.996-3.992h20.008
			c2.208,0,3.996,1.788,3.996,3.992V304.236z M400.456,384.236c0,2.204-1.788,3.992-3.996,3.992h-20.008
			c-2.208,0-3.996-1.788-3.996-3.992V364.22c0-2.204,1.788-3.992,3.996-3.992h20.008c2.208,0,3.996,1.788,3.996,3.992V384.236z
			 M400.456,344.236c0,2.204-1.788,3.992-3.996,3.992h-20.008c-2.208,0-3.996-1.788-3.996-3.992V324.22
			c0-2.204,1.788-3.992,3.996-3.992h20.008c2.208,0,3.996,1.788,3.996,3.992V344.236z M400.456,304.236
			c0,2.204-1.788,3.992-3.996,3.992h-20.008c-2.208,0-3.996-1.788-3.996-3.992V284.22c0-2.204,1.788-3.992,3.996-3.992h20.008
			c2.208,0,3.996,1.788,3.996,3.992V304.236z M440.456,384.236c0,2.204-1.788,3.992-3.996,3.992h-20.008
			c-2.208,0-3.996-1.788-3.996-3.992V364.22c0-2.204,1.788-3.992,3.996-3.992h20.008c2.208,0,3.996,1.788,3.996,3.992V384.236z
			 M440.456,344.236c0,2.204-1.788,3.992-3.996,3.992h-20.008c-2.208,0-3.996-1.788-3.996-3.992V324.22
			c0-2.204,1.788-3.992,3.996-3.992h20.008c2.208,0,3.996,1.788,3.996,3.992V344.236z M440.456,304.236
			c0,2.204-1.788,3.992-3.996,3.992h-20.008c-2.208,0-3.996-1.788-3.996-3.992V284.22c0-2.204,1.788-3.992,3.996-3.992h20.008
			c2.208,0,3.996,1.788,3.996,3.992V304.236z M464.456,228.236c0,2.204-1.788,3.992-3.992,3.992H228.448
			c-2.204,0-3.992-1.788-3.992-3.992V152.22c0-2.204,1.788-3.992,3.992-3.992h232.016c2.204,0,3.992,1.788,3.992,3.992V228.236z"/>
	</g>
</g>
<g>
</g>
<g>
</g>
<g>
</g>
<g>
</g>
<g>
</g>
<g>
</g>
<g>
</g>
<g>
</g>
<g>
</g>
<g>
</g>
<g>
</g>
<g>
</g>
<g>
</g>
<g>
</g>
<g>
</g>
</svg>
