<?xml version="1.0" encoding="iso-8859-1"?>
<!-- Generator: Adobe Illustrator 19.0.0, SVG Export Plug-In . SVG Version: 6.00 Build 0)  -->
<svg version="1.1" fill="url(#grad2)" filter="url(#f1)" id="Layer_1" xmlns="http://www.w3.org/2000/svg" xmlns:xlink="http://www.w3.org/1999/xlink" x="0px" y="0px"
	 viewBox="0 0 522 522" style="enable-background:new 0 0 512 512;" xml:space="preserve">

	 <defs>
    <linearGradient id="grad2" x1="0%" y1="0%" x2="0%" y2="100%">
      <stop offset="0%" style="stop-color:rgb(15,218,0);stop-opacity:1" />
      <stop offset="70%" style="stop-color:rgb(15,114,8);stop-opacity:1" />
      <stop offset="100%" style="stop-color:rgb(0,84,0);stop-opacity:1" />
    </linearGradient>
  </defs>
  <defs>
    <filter id="f1" x="0" y="0" width="200%" height="200%">
      <feOffset result="offOut" in="SourceAlpha" dx="2" dy="2" />
      <feGaussianBlur result="blurOut" in="offOut" stdDeviation="1" />
      <feBlend in="SourceGraphic" in2="blurOut" mode="normal" />
    </filter>
  </defs>
<g>
	<g>
		<polygon points="48.784,284.404 30.188,138.436 0,142.282 20.167,300.585 20.167,439.605 50.599,439.605 50.599,395.219 
			124.897,395.219 124.897,439.605 155.328,439.605 155.328,284.404 		"/>
	</g>
</g>
<g>
	<g>
		<polygon points="481.813,138.436 463.217,284.404 356.672,284.404 356.672,439.605 387.103,439.605 387.103,395.219 
			461.401,395.219 461.401,439.605 491.833,439.605 491.833,300.585 512,142.282 		"/>
	</g>
</g>
<g>
	<g>
		<path d="M297.899,409.171v-13.293h-0.001c16.646-12.887,26.682-32.955,26.682-54.272c0-21.317-10.035-41.386-26.682-54.272
			v-25.245h-83.796v25.245c-16.646,12.887-26.682,32.954-26.682,54.272c0,21.317,10.035,41.386,26.682,54.272v13.293h-39.341v30.432
			H337.24v-30.432H297.899z"/>
	</g>
</g>
<g>
	<g>
		<path d="M375.698,201.223v-26.881H389.9V143.91h-58.835v30.432h14.201v26.881h-50.212v-52.537c0-16.14-9.842-30.023-23.838-35.967
			V72.395h-30.432v40.324c-13.997,5.943-23.838,19.827-23.838,35.967v52.537h-50.212v-26.881h14.201v-30.432h-58.835v30.432h14.201
			v26.881H87.748v30.432h336.505v-0.001v-30.432H375.698z"/>
	</g>
</g>
<g>
</g>
<g>
</g>
<g>
</g>
<g>
</g>
<g>
</g>
<g>
</g>
<g>
</g>
<g>
</g>
<g>
</g>
<g>
</g>
<g>
</g>
<g>
</g>
<g>
</g>
<g>
</g>
<g>
</g>
</svg>
