<?xml version="1.0" encoding="iso-8859-1"?>
<!-- Generator: Adobe Illustrator 19.0.0, SVG Export Plug-In . SVG Version: 6.00 Build 0)  -->
<svg version="1.1" id="Layer_1" xmlns="http://www.w3.org/2000/svg" xmlns:xlink="http://www.w3.org/1999/xlink" x="0px" y="0px"
	 viewBox="0 0 512 512" style="enable-background:new 0 0 512 512;" xml:space="preserve">
<g>
	<g>
		<path d="M454.081,192.824h-27.877h-29.259h-70.975h-29.28h-27.877c-10.907,16.712-20.307,36.626-20.307,55.647v30.118h22.588
			h22.588h135.529h22.588h22.588v-30.118C474.388,229.45,464.988,209.536,454.081,192.824z"/>
	</g>
</g>
<g>
	<g>
		<path d="M451.799,399.059h-22.588H293.682h-22.588h-22.588v90.353c0,12.475,10.113,22.588,22.588,22.588h180.706
			c12.475,0,22.588-10.114,22.588-22.588v-90.353H451.799z"/>
	</g>
</g>
<g>
	<g>
		<path d="M421.682,0h-15.059H316.27h-15.059c-12.475,0-22.588,10.114-22.588,22.588c0,9.83,6.292,18.17,15.059,21.275v103.784
			h22.588h22.588h45.176h22.588h22.588V43.863c8.767-3.104,15.059-11.445,15.059-21.275C444.27,10.114,434.156,0,421.682,0z"/>
	</g>
</g>
<g>
	<g>
		<path d="M180.741,466.824h-37.682v-62.777c34.721-9.859,60.235-41.827,60.235-79.666v-90.353v-90.353
			c0-12.475-10.114-22.588-22.588-22.588H60.238c-12.475,0-22.588,10.114-22.588,22.588l-0.003,180.706
			c0,37.838,25.514,69.807,60.235,79.666v62.777H60.201c-12.475,0-22.588,10.114-22.588,22.588
			c0,12.475,10.114,22.588,22.588,22.588h60.27h60.27c12.475,0,22.588-10.114,22.588-22.588
			C203.329,476.937,193.215,466.824,180.741,466.824z M82.827,211.439v-45.177h75.291v45.177H82.827z"/>
	</g>
</g>
<g>
</g>
<g>
</g>
<g>
</g>
<g>
</g>
<g>
</g>
<g>
</g>
<g>
</g>
<g>
</g>
<g>
</g>
<g>
</g>
<g>
</g>
<g>
</g>
<g>
</g>
<g>
</g>
<g>
</g>
</svg>
