<?xml version="1.0" encoding="iso-8859-1"?>
<!-- Generator: Adobe Illustrator 19.0.0, SVG Export Plug-In . SVG Version: 6.00 Build 0)  -->
<svg fill="white" version="1.1" id="Layer_1" xmlns="http://www.w3.org/2000/svg" xmlns:xlink="http://www.w3.org/1999/xlink" x="0px" y="0px"
	 viewBox="0 0 512 512" style="enable-background:new 0 0 512 512;" xml:space="preserve">
<g>
	<g>
		<path d="M57.275,0v512h397.451V0H57.275z M157.043,145.4h13.448c6.338-35.727,34.572-63.961,70.3-70.3V57.95h30.417V75.1
			c35.728,6.339,63.961,34.573,70.3,70.3h13.448v30.417h-12.088H169.131h-12.088V145.4z M200.235,448.98h-89.9v-30.417h89.9V448.98z
			 M200.235,398.284h-89.9v-30.417h89.9V398.284z M200.235,347.589h-89.9v-30.417h89.9V347.589z M200.235,296.894h-89.9v-30.417
			h89.9V296.894z M200.235,246.199h-89.9v-30.417h89.9V246.199z M401.665,448.98H230.652v-30.417h171.012V448.98z M401.665,398.284
			H230.652v-30.417h171.012V398.284z M401.665,347.589H230.652v-30.417h171.012V347.589z M401.665,296.894H230.652v-30.417h171.012
			V296.894z M401.665,246.199H230.652v-30.417h171.012V246.199z"/>
	</g>
</g>
<g>
</g>
<g>
</g>
<g>
</g>
<g>
</g>
<g>
</g>
<g>
</g>
<g>
</g>
<g>
</g>
<g>
</g>
<g>
</g>
<g>
</g>
<g>
</g>
<g>
</g>
<g>
</g>
<g>
</g>
</svg>
